<svg xmlns="http://www.w3.org/2000/svg" width="1080" height="1350" viewBox="0 0 1080 1350">
<rect width="1080" height="1350" fill="#ffffff"/>
<text x="540" y="125" text-anchor="middle" font-family="Noto Sans Arabic, sans-serif" font-size="68" font-weight="700" fill="#124e5a">ﻲﻋﻮﺑ ﺀﺎﺑﺮﻬﻜﻟﺍ ﻡﺪﺨﺘﺳﺍ</text>
<text x="540" y="185" text-anchor="middle" font-family="Noto Sans Arabic, sans-serif" font-size="30" fill="#2f7776">ﺔﺒﺳﺎﻨﻤﻟﺍ ﺔﻘﻳﺮﻄﻟﺎﺑﻭ ﺔﺟﺎﺤﻟﺍ ﺪﻨﻋ ﺓﺰﻬﺟﻷﺍ ﻞﻐﺷ</text>
<path d="M130 295 Q540 230 950 295" fill="none" stroke="#d9efeb" stroke-width="16" stroke-linecap="round"/>
<!-- home -->
<path d="M180 700 L180 430 L540 255 L900 430 L900 700 Z" fill="#e8f5f1" stroke="#124e5a" stroke-width="8"/>
<path d="M135 440 L540 220 L945 440" fill="none" stroke="#124e5a" stroke-width="14" stroke-linecap="round" stroke-linejoin="round"/>
<rect x="270" y="515" width="160" height="155" rx="12" fill="#ffffff" stroke="#2f7776" stroke-width="7"/>
<rect x="650" y="515" width="160" height="155" rx="12" fill="#ffffff" stroke="#2f7776" stroke-width="7"/>
<!-- ac --> <rect x="390" y="375" width="300" height="75" rx="18" fill="#ffffff" stroke="#124e5a" stroke-width="8"/><line x1="425" y1="415" x2="655" y2="415" stroke="#46a99b" stroke-width="8" stroke-linecap="round"/><path d="M455 450 q0 35 20 55 M540 450 q0 35 0 55 M625 450 q0 35 -20 55" fill="none" stroke="#46a99b" stroke-width="8"/>
<!-- TV --> <rect x="300" y="545" width="100" height="65" rx="6" fill="#124e5a"/><path d="M325 625 h50 M350 610 v15" stroke="#124e5a" stroke-width="8"/>
<!-- light --> <path d="M715 535 q35 40 0 80 q-35 -40 0 -80" fill="#f4c95d" stroke="#c9932e" stroke-width="6"/><path d="M695 625 h40 M700 640 h30" stroke="#124e5a" stroke-width="7"/>
<!-- meter --> <rect x="455" y="540" width="170" height="135" rx="18" fill="#ffffff" stroke="#124e5a" stroke-width="8"/><circle cx="540" cy="595" r="33" fill="#dff3ed" stroke="#2f7776" stroke-width="6"/><path d="M540 575 v25 l17 12" fill="none" stroke="#124e5a" stroke-width="7" stroke-linecap="round"/><text x="540" y="655" text-anchor="middle" font-family="Noto Sans Arabic" font-size="22" fill="#124e5a">ﻲﻛﺫ ﻙﻼﻬﺘﺳﺍ</text>
<!-- status --> <circle cx="225" cy="760" r="34" fill="#48a889"/><path d="M207 760 l13 14 27 -31" fill="none" stroke="#fff" stroke-width="10" stroke-linecap="round" stroke-linejoin="round"/><text x="280" y="770" font-family="Noto Sans Arabic" font-size="28" fill="#124e5a">ﻪﺟﺎﺘﺤﺗ ﻻ ﺎﻣ ﺊﻔﻃﺃ</text>
<path d="M540 820 C540 900 540 900 540 950" stroke="#48a889" stroke-width="10" fill="none" marker-end="url(#arrow)"/>
<defs><marker id="arrow" markerWidth="12" markerHeight="12" refX="10" refY="6" orient="auto"><path d="M0,0 L12,6 L0,12 z" fill="#48a889"/></marker></defs>
<!-- outcome --> <rect x="270" y="950" width="540" height="140" rx="30" fill="#e8f5f1" stroke="#2f7776" stroke-width="6"/><text x="540" y="1010" text-anchor="middle" font-family="Noto Sans Arabic" font-size="30" font-weight="700" fill="#124e5a">ﻞﻗﺃ ﺭﺪﻫ</text><text x="540" y="1055" text-anchor="middle" font-family="Noto Sans Arabic" font-size="28" fill="#2f7776">ﻞﻀﻓﺃ ﺮﺛﺃ · ﺮﻓﻭﺃ ﺓﺭﻮﺗﺎﻓ</text>
<!-- icons --> <g transform="translate(100 1180)"><circle cx="70" cy="0" r="48" fill="#dff3ed"/><path d="M70 -25 v35 M50 -5 q20 -25 40 0" stroke="#124e5a" stroke-width="8" fill="none"/><text x="70" y="90" text-anchor="middle" font-family="Noto Sans Arabic" font-size="25" fill="#124e5a">ﺊﻔﻃﺃ</text></g><g transform="translate(350 1180)"><circle cx="70" cy="0" r="48" fill="#e7f1fb"/><path d="M45 -10 h50 M55 5 h30" stroke="#124e5a" stroke-width="8"/><text x="70" y="90" text-anchor="middle" font-family="Noto Sans Arabic" font-size="25" fill="#124e5a">ﻂﺒﺿﺍ</text></g><g transform="translate(600 1180)"><circle cx="70" cy="0" r="48" fill="#dff3ed"/><path d="M70 -28 v28 M55 0 q15 22 30 0 M55 0 h-18 M85 0 h18" stroke="#124e5a" stroke-width="8" fill="none"/><text x="70" y="90" text-anchor="middle" font-family="Noto Sans Arabic" font-size="25" fill="#124e5a">ﻞﺼﻓﺍ</text></g><g transform="translate(850 1180)"><circle cx="70" cy="0" r="48" fill="#fff2cc"/><path d="M70 28 q-35 -20 -10 -55 q35 20 10 55 M70 28 q15 -25 35 -27" stroke="#2f7776" stroke-width="7" fill="none"/><text x="70" y="90" text-anchor="middle" font-family="Noto Sans Arabic" font-size="25" fill="#124e5a">ﺮﻓﻭ</text></g>
</svg>
